<svg width="1319" height="759" viewBox="0 0 1319 759" fill="none" xmlns="http://www.w3.org/2000/svg">
<path d="M492.066 72.5004C492.066 72.5004 544.961 52.4482 592.027 53.8812C639.093 55.3142 689.008 69.6344 689.008 69.6344C689.008 69.6344 659.604 337.459 662.555 414.821C665.505 492.184 690.437 718.481 690.437 718.481C690.437 718.481 641.942 739.956 596.387 737.1C550.832 734.244 497.936 719.904 497.936 719.904C497.936 719.904 522.159 483.566 522.159 390.47C522.159 297.374 492.066 72.5004 492.066 72.5004Z" fill="#E11D48" stroke="black" stroke-width="0.5" stroke-miterlimit="10"/>
<path d="M450.921 197.113C450.921 197.113 490.636 125.512 486.185 72.5004C486.185 72.5004 503.817 45.293 590.516 45.293C677.216 45.293 702.188 63.9122 702.188 63.9122C702.188 63.9122 717.194 172.761 737.766 192.814C737.766 192.814 640.431 211.433 587.576 211.433C534.721 211.433 450.921 197.113 450.921 197.113Z" fill="#E11D48" stroke="black" stroke-width="0.5" stroke-miterlimit="10"/>
<path d="M740.2 600.668C740.2 600.668 697.747 670.756 700.079 723.877C700.079 723.877 681.393 750.412 594.765 747.19C508.136 743.968 483.894 724.46 483.894 724.46C483.894 724.46 473.156 615.106 453.385 594.303C453.385 594.303 551.339 579.311 604.194 581.277C657.049 583.244 740.2 600.668 740.2 600.668Z" fill="#E11D48" stroke="black" stroke-width="0.5" stroke-miterlimit="10"/>
<path d="M703.081 174.145H481.734C436.489 174.145 399.81 209.896 399.81 253.998V542.596C399.81 586.698 436.489 622.449 481.734 622.449H703.081C748.326 622.449 785.004 586.698 785.004 542.596V253.998C785.004 209.896 748.326 174.145 703.081 174.145Z" fill="#6B7280" stroke="black" stroke-width="0.5" stroke-miterlimit="10"/>
<path d="M692.293 199.267H492.522C452.109 199.267 419.348 231.2 419.348 270.591V526.003C419.348 565.394 452.109 597.327 492.522 597.327H692.293C732.705 597.327 765.466 565.394 765.466 526.003V270.591C765.466 231.2 732.705 199.267 692.293 199.267Z" fill="#EA580C" stroke="black" stroke-width="0.5" stroke-miterlimit="10"/>
<path d="M680.176 215.544H504.638C468.123 215.544 438.521 244.397 438.521 279.99V516.594C438.521 552.187 468.123 581.04 504.638 581.04H680.176C716.692 581.04 746.293 552.187 746.293 516.594V279.99C746.293 244.397 716.692 215.544 680.176 215.544Z" fill="#CA8A04" stroke="black" stroke-width="0.5" stroke-miterlimit="10"/>
<path d="M481.521 361.52H472.908V306.635C470.834 308.613 468.107 310.59 464.725 312.568C461.375 314.546 458.361 316.03 455.681 317.018V308.692C460.498 306.427 464.709 303.684 468.314 300.462C471.919 297.24 474.471 294.113 475.97 291.083H481.521V361.52ZM504.298 327.354C504.298 315.71 507.425 306.603 513.677 300.031C519.93 293.428 528.001 290.126 537.89 290.126C544.366 290.126 550.204 291.673 555.404 294.767C560.604 297.862 564.559 302.184 567.271 307.735C570.014 313.254 571.386 319.523 571.386 326.541C571.386 333.655 569.951 340.019 567.08 345.634C564.208 351.248 560.141 355.507 554.877 358.41C549.614 361.281 543.935 362.717 537.842 362.717C531.239 362.717 525.337 361.122 520.137 357.932C514.937 354.741 510.998 350.387 508.318 344.868C505.638 339.349 504.298 333.511 504.298 327.354ZM513.869 327.498C513.869 335.952 516.134 342.619 520.664 347.5C525.225 352.349 530.936 354.773 537.794 354.773C544.781 354.773 550.523 352.317 555.021 347.404C559.551 342.491 561.816 335.521 561.816 326.493C561.816 320.783 560.843 315.806 558.897 311.563C556.983 307.289 554.16 303.987 550.427 301.658C546.727 299.297 542.564 298.117 537.938 298.117C531.366 298.117 525.704 300.382 520.951 304.912C516.229 309.41 513.869 316.939 513.869 327.498ZM584.689 320.512V310.702H594.499V320.512H584.689ZM584.689 361.52V351.711H594.499V361.52H584.689ZM639.623 361.52H631.009V306.635C628.936 308.613 626.208 310.59 622.827 312.568C619.477 314.546 616.462 316.03 613.783 317.018V308.692C618.6 306.427 622.811 303.684 626.416 300.462C630.02 297.24 632.572 294.113 634.072 291.083H639.623V361.52ZM662.4 327.354C662.4 315.71 665.526 306.603 671.779 300.031C678.031 293.428 686.102 290.126 695.992 290.126C702.468 290.126 708.306 291.673 713.505 294.767C718.705 297.862 722.661 302.184 725.373 307.735C728.116 313.254 729.488 319.523 729.488 326.541C729.488 333.655 728.052 340.019 725.181 345.634C722.31 351.248 718.243 355.507 712.979 358.41C707.715 361.281 702.037 362.717 695.944 362.717C689.34 362.717 683.439 361.122 678.239 357.932C673.039 354.741 669.099 350.387 666.419 344.868C663.74 339.349 662.4 333.511 662.4 327.354ZM671.97 327.498C671.97 335.952 674.235 342.619 678.765 347.5C683.327 352.349 689.037 354.773 695.896 354.773C702.882 354.773 708.625 352.317 713.123 347.404C717.653 342.491 719.917 335.521 719.917 326.493C719.917 320.783 718.944 315.806 716.999 311.563C715.084 307.289 712.261 303.987 708.529 301.658C704.828 299.297 700.665 298.117 696.04 298.117C689.468 298.117 683.806 300.382 679.052 304.912C674.331 309.41 671.97 316.939 671.97 327.498Z" fill="black"/>
<path d="M497.203 259.246V237.771H500.045V256.712H510.621V259.246H497.203ZM523.878 259.246V256.961C522.667 258.719 521.022 259.598 518.942 259.598C518.024 259.598 517.164 259.422 516.364 259.07C515.573 258.719 514.982 258.279 514.591 257.752C514.21 257.215 513.942 256.561 513.785 255.789C513.678 255.271 513.624 254.451 513.624 253.328V243.689H516.261V252.317C516.261 253.694 516.315 254.622 516.422 255.101C516.588 255.794 516.94 256.341 517.477 256.741C518.014 257.132 518.678 257.327 519.469 257.327C520.26 257.327 521.002 257.127 521.696 256.727C522.389 256.316 522.877 255.765 523.16 255.071C523.453 254.368 523.6 253.353 523.6 252.024V243.689H526.237V259.246H523.878ZM530.382 259.246V243.689H532.755V245.901C533.898 244.192 535.548 243.338 537.706 243.338C538.644 243.338 539.503 243.509 540.284 243.851C541.075 244.183 541.666 244.622 542.057 245.169C542.448 245.716 542.721 246.365 542.877 247.117C542.975 247.605 543.024 248.46 543.024 249.681V259.246H540.387V249.783C540.387 248.709 540.284 247.908 540.079 247.381C539.874 246.844 539.508 246.419 538.981 246.106C538.463 245.784 537.853 245.623 537.15 245.623C536.027 245.623 535.055 245.979 534.235 246.692C533.424 247.405 533.019 248.758 533.019 250.75V259.246H530.382ZM547.828 259.246V256.243H550.831V259.246H547.828ZM585.255 256.712V259.246H571.061C571.041 258.611 571.144 258.001 571.368 257.415C571.73 256.448 572.306 255.496 573.097 254.559C573.898 253.621 575.05 252.537 576.554 251.307C578.888 249.393 580.465 247.879 581.285 246.766C582.106 245.643 582.516 244.583 582.516 243.587C582.516 242.542 582.14 241.663 581.388 240.95C580.646 240.228 579.674 239.866 578.473 239.866C577.203 239.866 576.188 240.247 575.426 241.009C574.664 241.771 574.279 242.825 574.269 244.173L571.559 243.895C571.744 241.873 572.443 240.335 573.654 239.28C574.865 238.216 576.49 237.684 578.531 237.684C580.592 237.684 582.223 238.255 583.424 239.397C584.625 240.54 585.226 241.956 585.226 243.646C585.226 244.505 585.05 245.35 584.698 246.18C584.347 247.01 583.761 247.884 582.941 248.802C582.13 249.72 580.778 250.979 578.883 252.581C577.301 253.909 576.285 254.812 575.836 255.291C575.387 255.76 575.016 256.233 574.723 256.712H585.255ZM596.549 259.246V254.104H587.233V251.688L597.032 237.771H599.186V251.688H602.086V254.104H599.186V259.246H596.549ZM596.549 251.688V242.005L589.825 251.688H596.549ZM612.897 251.468C612.897 248.587 613.698 246.453 615.299 245.066C616.637 243.914 618.268 243.338 620.192 243.338C622.33 243.338 624.078 244.041 625.436 245.447C626.793 246.844 627.472 248.777 627.472 251.248C627.472 253.25 627.169 254.827 626.564 255.979C625.968 257.122 625.094 258.011 623.942 258.646C622.799 259.28 621.549 259.598 620.192 259.598C618.014 259.598 616.251 258.899 614.904 257.503C613.566 256.106 612.897 254.095 612.897 251.468ZM615.607 251.468C615.607 253.46 616.041 254.954 616.91 255.95C617.78 256.937 618.873 257.43 620.192 257.43C621.5 257.43 622.589 256.932 623.458 255.936C624.327 254.939 624.762 253.421 624.762 251.38C624.762 249.456 624.323 248.001 623.444 247.015C622.574 246.019 621.49 245.521 620.192 245.521C618.873 245.521 617.78 246.014 616.91 247C616.041 247.986 615.607 249.476 615.607 251.468ZM640.729 253.548L643.322 253.885C643.038 255.672 642.311 257.073 641.139 258.089C639.977 259.095 638.546 259.598 636.847 259.598C634.718 259.598 633.004 258.904 631.705 257.518C630.416 256.121 629.772 254.124 629.772 251.526C629.772 249.847 630.05 248.377 630.607 247.117C631.163 245.857 632.008 244.915 633.141 244.29C634.283 243.655 635.524 243.338 636.862 243.338C638.551 243.338 639.933 243.768 641.007 244.627C642.081 245.477 642.77 246.688 643.073 248.26L640.509 248.655C640.265 247.61 639.83 246.824 639.205 246.297C638.59 245.77 637.843 245.506 636.964 245.506C635.636 245.506 634.557 245.984 633.727 246.941C632.897 247.889 632.482 249.393 632.482 251.453C632.482 253.543 632.882 255.062 633.683 256.009C634.484 256.956 635.529 257.43 636.818 257.43C637.853 257.43 638.717 257.112 639.41 256.478C640.104 255.843 640.543 254.866 640.729 253.548ZM651.334 256.888L651.715 259.217C650.973 259.373 650.309 259.451 649.723 259.451C648.766 259.451 648.024 259.3 647.496 258.997C646.969 258.694 646.598 258.299 646.383 257.811C646.168 257.312 646.061 256.272 646.061 254.69V245.74H644.127V243.689H646.061V239.837L648.683 238.255V243.689H651.334V245.74H648.683V254.837C648.683 255.589 648.727 256.072 648.815 256.287C648.912 256.502 649.064 256.673 649.269 256.8C649.484 256.927 649.786 256.99 650.177 256.99C650.47 256.99 650.856 256.956 651.334 256.888ZM654.674 259.246V256.243H657.677V259.246H654.674Z" fill="black"/>
<g clip-path="url(#clip0_39_141)">
<path d="M688.888 413.102C683.956 413.401 679.267 415.298 675.566 418.491L684.794 427.486C685.999 426.615 687.405 426.048 688.888 425.834V413.102Z" fill="#BBBDBF"/>
<path d="M668.07 436.118C668.378 440.928 670.319 445.501 673.587 449.116L682.827 440.109C681.931 438.936 681.345 437.565 681.12 436.118H668.07Z" fill="#929497"/>
<path d="M673.6 420.408C670.317 424.016 668.37 428.592 668.07 433.406H681.12C681.347 431.956 681.933 430.582 682.827 429.403L673.6 420.408Z" fill="#A6A8AB"/>
<path d="M705.019 418.491C701.308 415.299 696.612 413.402 691.672 413.102V425.834C693.16 426.043 694.571 426.611 695.778 427.486L705.019 418.491Z" fill="#231F20"/>
<path d="M697.758 440.121L706.985 449.116C710.263 445.506 712.205 440.93 712.502 436.118H699.452C699.224 437.566 698.643 438.938 697.758 440.121Z" fill="#58595B"/>
<path d="M712.502 433.406C712.207 428.594 710.264 424.017 706.985 420.408L697.758 429.403C698.652 430.582 699.237 431.956 699.465 433.406H712.502Z" fill="#404041"/>
<path d="M675.566 451.033C679.265 454.227 683.956 456.121 688.888 456.41V443.69C687.408 443.465 686.004 442.899 684.794 442.038L675.566 451.033Z" fill="#808284"/>
<path d="M691.672 456.41C696.612 456.12 701.31 454.227 705.019 451.033L695.778 442.038C694.567 442.905 693.158 443.472 691.672 443.69V456.41Z" fill="#6D6E70"/>
</g>
<g clip-path="url(#clip1_39_141)">
<path style="mix-blend-mode:multiply" d="M514.31 453.074C514.31 455.604 504.699 457.653 492.844 457.653C480.989 457.653 471.372 455.604 471.372 453.074C471.372 450.544 480.982 448.495 492.844 448.495C504.706 448.495 514.31 450.544 514.31 453.074Z" fill="url(#paint0_radial_39_141)"/>
<path d="M492.844 453.808C488.629 453.809 484.508 452.592 481.002 450.31C477.497 448.028 474.765 444.784 473.151 440.988C471.537 437.192 471.115 433.016 471.937 428.986C472.759 424.956 474.788 421.254 477.769 418.349C480.75 415.444 484.547 413.465 488.682 412.664C492.816 411.863 497.101 412.275 500.995 413.847C504.89 415.42 508.218 418.084 510.559 421.5C512.9 424.917 514.149 428.934 514.147 433.043C514.141 438.548 511.894 443.826 507.9 447.718C503.907 451.611 498.492 453.801 492.844 453.808Z" fill="url(#paint1_radial_39_141)"/>
<path d="M492.844 412.43C497.027 412.43 501.116 413.638 504.593 415.903C508.071 418.168 510.782 421.388 512.382 425.154C513.983 428.921 514.402 433.066 513.586 437.064C512.77 441.063 510.755 444.736 507.798 447.618C504.84 450.501 501.072 452.464 496.97 453.26C492.868 454.055 488.616 453.647 484.751 452.087C480.887 450.527 477.584 447.885 475.261 444.495C472.937 441.105 471.696 437.12 471.696 433.043C471.702 427.577 473.931 422.337 477.896 418.473C481.861 414.608 487.237 412.435 492.844 412.43ZM492.844 412.113C488.597 412.112 484.445 413.338 480.913 415.637C477.381 417.936 474.628 421.205 473.002 425.029C471.376 428.853 470.95 433.062 471.777 437.122C472.605 441.182 474.65 444.912 477.652 447.84C480.655 450.767 484.481 452.761 488.646 453.57C492.812 454.378 497.129 453.963 501.053 452.38C504.977 450.796 508.331 448.113 510.691 444.671C513.05 441.229 514.31 437.182 514.31 433.043C514.311 430.295 513.756 427.573 512.678 425.034C511.599 422.495 510.018 420.187 508.025 418.244C506.032 416.3 503.665 414.758 501.06 413.707C498.455 412.655 495.664 412.113 492.844 412.113Z" fill="#8C98A0"/>
<path style="mix-blend-mode:screen" opacity="0.6" d="M492.695 437.344C492.695 438.809 492.249 440.241 491.414 441.459C490.579 442.677 489.392 443.626 488.004 444.187C486.616 444.747 485.088 444.894 483.614 444.608C482.14 444.322 480.786 443.617 479.723 442.581C478.66 441.545 477.937 440.226 477.644 438.789C477.35 437.352 477.501 435.863 478.076 434.509C478.651 433.156 479.625 431.999 480.875 431.185C482.124 430.372 483.593 429.937 485.096 429.937C486.094 429.937 487.082 430.129 488.004 430.501C488.926 430.873 489.764 431.419 490.469 432.107C491.175 432.794 491.735 433.611 492.116 434.509C492.498 435.408 492.695 436.371 492.695 437.344Z" fill="url(#paint2_radial_39_141)"/>
<path style="mix-blend-mode:screen" opacity="0.8" d="M485.148 424.573C485.147 424.925 485.039 425.268 484.838 425.559C484.636 425.851 484.351 426.077 484.018 426.211C483.685 426.345 483.318 426.379 482.965 426.31C482.612 426.24 482.287 426.07 482.033 425.822C481.779 425.573 481.606 425.256 481.536 424.912C481.466 424.567 481.502 424.21 481.641 423.886C481.779 423.561 482.013 423.284 482.312 423.089C482.612 422.894 482.964 422.79 483.325 422.79C483.565 422.79 483.802 422.836 484.024 422.926C484.246 423.015 484.447 423.147 484.616 423.313C484.786 423.478 484.92 423.675 485.011 423.891C485.102 424.108 485.149 424.34 485.148 424.573Z" fill="url(#paint3_radial_39_141)"/>
<path style="mix-blend-mode:screen" opacity="0.8" d="M485.648 439.165C485.648 439.712 485.481 440.247 485.169 440.702C484.857 441.156 484.414 441.511 483.896 441.72C483.377 441.929 482.807 441.983 482.256 441.876C481.706 441.769 481.201 441.505 480.805 441.118C480.408 440.73 480.139 440.237 480.03 439.701C479.921 439.164 479.978 438.608 480.194 438.103C480.41 437.598 480.774 437.167 481.241 436.864C481.708 436.561 482.257 436.4 482.819 436.401C483.191 436.401 483.559 436.473 483.903 436.612C484.246 436.751 484.559 436.955 484.821 437.211C485.084 437.468 485.292 437.773 485.434 438.108C485.576 438.443 485.649 438.803 485.648 439.165Z" fill="url(#paint4_radial_39_141)"/>
<path style="mix-blend-mode:screen" opacity="0.8" d="M499.035 421.392C499.035 422.05 498.834 422.693 498.459 423.24C498.084 423.788 497.551 424.214 496.928 424.466C496.304 424.718 495.618 424.784 494.955 424.655C494.293 424.527 493.685 424.21 493.208 423.745C492.73 423.279 492.405 422.687 492.274 422.041C492.142 421.396 492.21 420.727 492.468 420.119C492.726 419.511 493.164 418.991 493.725 418.626C494.286 418.26 494.946 418.065 495.621 418.065C496.526 418.067 497.393 418.418 498.033 419.041C498.673 419.665 499.033 420.51 499.035 421.392Z" fill="url(#paint5_radial_39_141)"/>
<path style="mix-blend-mode:screen" d="M495.096 428.35C495.096 428.485 495.055 428.617 494.978 428.729C494.901 428.841 494.791 428.929 494.663 428.981C494.535 429.032 494.394 429.046 494.258 429.02C494.122 428.993 493.997 428.928 493.899 428.833C493.801 428.737 493.735 428.615 493.708 428.483C493.681 428.35 493.694 428.213 493.747 428.088C493.8 427.963 493.89 427.857 494.006 427.782C494.121 427.707 494.256 427.667 494.395 427.667C494.487 427.666 494.579 427.683 494.664 427.717C494.75 427.751 494.827 427.801 494.892 427.865C494.958 427.928 495.009 428.004 495.044 428.087C495.079 428.17 495.097 428.26 495.096 428.35Z" fill="url(#paint6_radial_39_141)"/>
<path style="mix-blend-mode:screen" d="M488.892 429.564C488.892 429.842 488.808 430.113 488.649 430.344C488.491 430.575 488.266 430.755 488.003 430.861C487.74 430.968 487.45 430.995 487.171 430.941C486.891 430.887 486.635 430.753 486.433 430.557C486.232 430.361 486.094 430.11 486.039 429.838C485.983 429.566 486.012 429.283 486.121 429.027C486.23 428.77 486.414 428.551 486.651 428.397C486.888 428.242 487.167 428.16 487.452 428.16C487.834 428.16 488.2 428.308 488.47 428.571C488.74 428.835 488.892 429.192 488.892 429.564Z" fill="url(#paint7_radial_39_141)"/>
<path style="mix-blend-mode:screen" opacity="0.8" d="M513.323 431.651C513.323 433.58 512.737 435.466 511.637 437.07C510.538 438.674 508.975 439.924 507.147 440.662C505.318 441.4 503.306 441.593 501.365 441.217C499.424 440.841 497.641 439.912 496.242 438.548C494.843 437.184 493.89 435.446 493.504 433.554C493.117 431.662 493.316 429.701 494.073 427.919C494.83 426.137 496.113 424.613 497.758 423.542C499.404 422.47 501.338 421.898 503.317 421.898C504.632 421.897 505.933 422.149 507.148 422.639C508.362 423.129 509.465 423.847 510.395 424.753C511.324 425.659 512.061 426.734 512.563 427.918C513.066 429.101 513.324 430.37 513.323 431.651Z" fill="url(#paint8_radial_39_141)"/>
<path style="mix-blend-mode:screen" d="M494.927 435.845C501.208 429.602 508.275 426.357 511.065 428.318C510.994 428.217 510.911 428.123 510.819 428.04C508.255 425.585 500.897 428.849 494.382 435.326C487.867 441.803 484.648 449.039 487.244 451.493C487.335 451.577 487.433 451.656 487.536 451.727C485.447 449.045 488.646 442.094 494.927 435.845Z" fill="url(#paint9_linear_39_141)"/>
<path style="mix-blend-mode:screen" opacity="0.4" d="M496.822 434.339C499.924 424.257 499.995 415.276 497.01 413.739C497.134 413.751 497.255 413.777 497.373 413.815C500.696 414.814 500.761 424.099 497.523 434.554C494.285 445.01 488.97 452.669 485.648 451.663C485.53 451.629 485.417 451.582 485.31 451.524C488.639 451.904 493.701 444.421 496.822 434.339Z" fill="url(#paint10_linear_39_141)"/>
<path style="mix-blend-mode:screen" opacity="0.7" d="M491.903 442.638C482.604 440.158 475.72 435.592 476.096 432.24C476.041 432.352 475.995 432.468 475.96 432.587C475.012 435.965 482.059 440.81 491.702 443.34C501.345 445.87 509.93 445.237 510.871 441.872C510.91 441.76 510.939 441.643 510.955 441.525C509.514 444.592 501.221 445.117 491.903 442.638Z" fill="url(#paint11_linear_39_141)"/>
<path style="mix-blend-mode:screen" d="M491.65 422.296C500.43 420.475 508.204 421.765 509.475 425.168C509.466 425.034 509.446 424.901 509.417 424.77C508.612 421.082 500.572 419.627 491.488 421.518C482.403 423.41 475.661 427.926 476.466 431.626C476.498 431.754 476.537 431.881 476.583 432.005C476.317 428.394 482.877 424.131 491.65 422.296Z" fill="url(#paint12_linear_39_141)"/>
<path style="mix-blend-mode:screen" d="M500.826 427.122C507.444 435.585 509.008 445.357 504.511 449.431C504.706 449.318 504.894 449.196 505.076 449.064C510.183 445.269 508.762 435.086 501.909 426.294C495.057 417.502 485.349 413.505 480.249 417.293C480.067 417.426 479.894 417.57 479.73 417.723C484.96 414.599 494.213 418.66 500.826 427.122Z" fill="url(#paint13_linear_39_141)"/>
<path style="mix-blend-mode:screen" d="M482.994 433.618C482.669 423.498 485.797 415.181 490.054 414.479C489.896 414.469 489.738 414.469 489.58 414.479C485.083 414.618 481.702 423.214 482.04 433.675C482.377 444.137 486.297 452.479 490.794 452.347C490.952 452.34 491.111 452.323 491.267 452.296C486.946 451.853 483.312 443.738 482.994 433.618Z" fill="url(#paint14_linear_39_141)"/>
<path style="mix-blend-mode:screen" opacity="0.7" d="M498.781 448.014C490.19 451.025 482.046 450.373 480.106 446.616C480.139 446.768 480.183 446.918 480.236 447.065C481.754 451.195 490.19 452.011 499.106 448.887C508.022 445.762 513.972 439.893 512.447 435.762C512.394 435.617 512.331 435.476 512.259 435.339C513.22 439.437 507.36 445.003 498.781 448.014Z" fill="url(#paint15_linear_39_141)"/>
<g style="mix-blend-mode:screen">
<path d="M505.666 421.095C505.666 424.605 499.924 427.452 492.844 427.452C485.765 427.452 480.015 424.605 480.015 421.127C480.015 417.648 485.758 414.732 492.844 414.732C499.93 414.732 505.666 417.578 505.666 421.095Z" fill="url(#paint16_linear_39_141)"/>
</g>
</g>
<g clip-path="url(#clip2_39_141)">
<path d="M592.027 460.292C587.264 460.292 582.609 458.915 578.649 456.336C574.689 453.757 571.602 450.091 569.78 445.803C567.957 441.514 567.48 436.794 568.409 432.241C569.339 427.688 571.632 423.506 575 420.223C578.367 416.941 582.658 414.705 587.329 413.8C592 412.894 596.842 413.359 601.242 415.135C605.642 416.912 609.403 419.92 612.049 423.78C614.695 427.64 616.107 432.178 616.107 436.82C616.099 443.043 613.56 449.009 609.046 453.409C604.531 457.809 598.411 460.284 592.027 460.292Z" fill="url(#paint17_linear_39_141)"/>
<path d="M592.027 413.596C596.74 413.596 601.346 414.958 605.265 417.51C609.183 420.062 612.237 423.689 614.04 427.933C615.844 432.176 616.316 436.846 615.396 441.351C614.477 445.856 612.207 449.995 608.875 453.243C605.543 456.491 601.297 458.703 596.675 459.599C592.054 460.495 587.263 460.035 582.909 458.277C578.555 456.519 574.834 453.542 572.216 449.723C569.598 445.904 568.2 441.414 568.2 436.82C568.206 430.662 570.718 424.758 575.185 420.404C579.652 416.049 585.709 413.601 592.027 413.596ZM592.027 413.102C587.214 413.102 582.51 414.493 578.508 417.099C574.506 419.705 571.387 423.41 569.546 427.744C567.704 432.078 567.222 436.847 568.161 441.448C569.1 446.049 571.417 450.275 574.82 453.592C578.224 456.909 582.56 459.168 587.28 460.083C592 460.999 596.893 460.529 601.339 458.734C605.786 456.938 609.586 453.898 612.26 449.998C614.934 446.097 616.361 441.511 616.361 436.82C616.361 430.53 613.797 424.497 609.234 420.049C604.67 415.6 598.481 413.102 592.027 413.102V413.102Z" fill="#B2B4B7"/>
<path d="M609.77 436.82C609.77 440.241 608.73 443.585 606.78 446.429C604.831 449.273 602.059 451.49 598.817 452.799C595.575 454.108 592.007 454.45 588.566 453.783C585.124 453.116 581.962 451.468 579.481 449.05C576.999 446.631 575.309 443.549 574.625 440.194C573.94 436.84 574.291 433.362 575.634 430.202C576.977 427.042 579.251 424.341 582.169 422.44C585.087 420.54 588.518 419.525 592.027 419.525C594.358 419.524 596.665 419.971 598.819 420.839C600.972 421.708 602.929 422.982 604.577 424.588C606.224 426.194 607.531 428.101 608.423 430.2C609.314 432.299 609.772 434.549 609.77 436.82Z" fill="url(#paint18_linear_39_141)"/>
<path d="M592.027 451.15C589.119 451.15 586.277 450.31 583.859 448.735C581.442 447.161 579.557 444.923 578.445 442.304C577.332 439.686 577.041 436.804 577.608 434.025C578.175 431.245 579.575 428.692 581.631 426.687C583.688 424.683 586.307 423.319 589.159 422.766C592.011 422.213 594.967 422.496 597.653 423.581C600.34 424.666 602.636 426.502 604.251 428.859C605.867 431.216 606.729 433.986 606.729 436.82C606.723 440.619 605.173 444.261 602.417 446.947C599.661 449.634 595.925 451.145 592.027 451.15Z" fill="url(#paint19_radial_39_141)"/>
<path d="M592.027 422.984C594.835 422.984 597.579 423.796 599.913 425.316C602.248 426.836 604.067 428.997 605.141 431.526C606.216 434.054 606.497 436.836 605.949 439.52C605.401 442.203 604.049 444.669 602.064 446.604C600.079 448.539 597.55 449.857 594.796 450.39C592.043 450.924 589.189 450.65 586.595 449.603C584.001 448.556 581.784 446.782 580.225 444.507C578.665 442.232 577.832 439.557 577.832 436.82C577.832 433.151 579.328 429.632 581.99 427.037C584.652 424.442 588.262 422.984 592.027 422.984ZM592.027 421.996C589.019 421.996 586.079 422.866 583.578 424.494C581.077 426.123 579.127 428.439 577.976 431.147C576.825 433.856 576.524 436.837 577.111 439.712C577.698 442.588 579.146 445.229 581.273 447.303C583.4 449.376 586.11 450.788 589.06 451.36C592.01 451.932 595.068 451.638 597.847 450.516C600.626 449.394 603.001 447.494 604.673 445.056C606.344 442.618 607.236 439.752 607.236 436.82C607.236 432.889 605.633 429.118 602.781 426.338C599.929 423.558 596.061 421.996 592.027 421.996Z" fill="#8C98A0"/>
<g style="mix-blend-mode:multiply" opacity="0.8">
<path d="M601.061 424.961C601.156 425.616 601.207 426.276 601.213 426.938C601.209 429.678 600.425 432.364 598.949 434.696C597.473 437.029 595.362 438.917 592.851 440.15C590.341 441.384 587.529 441.915 584.727 441.685C581.925 441.455 579.244 440.472 576.981 438.846C577.309 441.276 578.251 443.589 579.721 445.577C581.191 447.566 583.145 449.168 585.406 450.24C587.667 451.312 590.165 451.821 592.678 451.721C595.19 451.622 597.638 450.916 599.803 449.668C601.967 448.42 603.78 446.669 605.079 444.57C606.379 442.472 607.124 440.092 607.249 437.644C607.374 435.196 606.874 432.757 605.794 430.543C604.714 428.33 603.088 426.412 601.061 424.961Z" fill="url(#paint20_linear_39_141)"/>
</g>
</g>
<rect x="570.785" y="509.661" width="49.5816" height="44.4297" rx="1.95" fill="white" stroke="black" stroke-width="0.1"/>
<rect x="577.832" y="501.515" width="35.4868" height="2.69877" fill="black"/>
<rect x="577.832" y="558.189" width="35.4868" height="2.69877" fill="black"/>
<rect x="577.832" y="563.586" width="35.4868" height="2.69877" fill="black"/>
<rect x="577.832" y="496.117" width="35.4868" height="2.69877" fill="black"/>
<path d="M591.594 524.707V519.507H590.634V524.707H591.594ZM594.134 519.027V518.067H588.204V519.027H594.134ZM595.089 524.707V518.057H596.049V524.707H595.089ZM596.019 518.087H595.119V524.677H596.019V518.087ZM595.089 518.057V524.707H596.049V518.057H595.089ZM597.963 521.007V518.067H597.003V521.967L597.923 521.047L597.963 521.007ZM599.613 521.387L602.933 518.067H601.583L598.753 520.897L597.963 521.687L597.003 522.637V524.707H597.963V523.047L598.933 522.067L601.583 524.707H602.933L599.613 521.387Z" fill="black"/>
<path d="M589.314 546.298V541.098H588.354V546.298H589.314ZM591.854 540.618V539.658H585.924V540.618H591.854ZM591.163 546.298H592.433L594.543 542.498L593.913 541.348L591.163 546.298ZM595.493 540.778L594.853 539.638L594.223 540.778L594.853 541.918L597.283 546.298H598.543L595.493 540.778ZM600.243 542.598V539.658H599.283V543.558L600.203 542.638L600.243 542.598ZM601.893 542.978L605.213 539.658H603.863L601.033 542.488L600.243 543.278L599.283 544.228V546.298H600.243V544.638L601.213 543.658L603.863 546.298H605.213L601.893 542.978Z" fill="black"/>
<rect x="588.479" y="531.201" width="3.54868" height="2.69877" fill="black"/>
<rect x="599.125" y="531.201" width="3.54868" height="2.69877" fill="black"/>
<defs>
<radialGradient id="paint0_radial_39_141" cx="0" cy="0" r="1" gradientUnits="userSpaceOnUse" gradientTransform="translate(490.971 454.521) scale(21.4157 4.57772)">
<stop offset="0.1" stop-color="#DADADA" stop-opacity="0.95"/>
<stop offset="1" stop-color="white" stop-opacity="0"/>
</radialGradient>
<radialGradient id="paint1_radial_39_141" cx="0" cy="0" r="1" gradientUnits="userSpaceOnUse" gradientTransform="translate(492.779 448.457) scale(22.134 21.5746)">
<stop stop-color="white"/>
<stop offset="1" stop-color="#B1BFC7"/>
</radialGradient>
<radialGradient id="paint2_radial_39_141" cx="0" cy="0" r="1" gradientUnits="userSpaceOnUse" gradientTransform="translate(485.096 437.344) scale(7.59864 7.40657)">
<stop offset="0.11" stop-color="white"/>
<stop offset="0.95"/>
</radialGradient>
<radialGradient id="paint3_radial_39_141" cx="0" cy="0" r="1" gradientUnits="userSpaceOnUse" gradientTransform="translate(483.325 424.567) scale(1.82341 1.77733)">
<stop offset="0.11" stop-color="white"/>
<stop offset="0.95"/>
</radialGradient>
<radialGradient id="paint4_radial_39_141" cx="0" cy="0" r="1" gradientUnits="userSpaceOnUse" gradientTransform="translate(482.825 439.159) scale(2.82921 2.7577)">
<stop offset="0.11" stop-color="white"/>
<stop offset="0.95"/>
</radialGradient>
<radialGradient id="paint5_radial_39_141" cx="0" cy="0" r="1" gradientUnits="userSpaceOnUse" gradientTransform="translate(495.621 421.392) scale(3.41322 3.32695)">
<stop offset="0.11" stop-color="white"/>
<stop offset="0.95"/>
</radialGradient>
<radialGradient id="paint6_radial_39_141" cx="0" cy="0" r="1" gradientUnits="userSpaceOnUse" gradientTransform="translate(494.395 428.35) scale(0.700814 0.6831)">
<stop offset="0.11" stop-color="white"/>
<stop offset="0.95"/>
</radialGradient>
<radialGradient id="paint7_radial_39_141" cx="0" cy="0" r="1" gradientUnits="userSpaceOnUse" gradientTransform="translate(487.478 429.564) scale(1.44056 1.40415)">
<stop offset="0.11" stop-color="white"/>
<stop offset="0.95"/>
</radialGradient>
<radialGradient id="paint8_radial_39_141" cx="0" cy="0" r="1" gradientUnits="userSpaceOnUse" gradientTransform="translate(503.317 431.651) scale(9.99958 9.74683)">
<stop offset="0.11" stop-color="white"/>
<stop offset="0.95"/>
</radialGradient>
<linearGradient id="paint9_linear_39_141" x1="511.303" y1="429.466" x2="487.876" y2="453.5" gradientUnits="userSpaceOnUse">
<stop/>
<stop offset="0.6" stop-color="white"/>
<stop offset="0.9"/>
</linearGradient>
<linearGradient id="paint10_linear_39_141" x1="491.713" y1="395.565" x2="480.622" y2="434.126" gradientUnits="userSpaceOnUse">
<stop/>
<stop offset="0.6" stop-color="white"/>
<stop offset="0.9"/>
</linearGradient>
<linearGradient id="paint11_linear_39_141" x1="478.46" y1="420.969" x2="513.441" y2="431.223" gradientUnits="userSpaceOnUse">
<stop/>
<stop offset="0.6" stop-color="white"/>
<stop offset="0.9"/>
</linearGradient>
<linearGradient id="paint12_linear_39_141" x1="524.109" y1="413.137" x2="490.992" y2="420.031" gradientUnits="userSpaceOnUse">
<stop/>
<stop offset="0.6" stop-color="white"/>
<stop offset="0.9"/>
</linearGradient>
<linearGradient id="paint13_linear_39_141" x1="503.192" y1="432.262" x2="479.132" y2="399.35" gradientUnits="userSpaceOnUse">
<stop/>
<stop offset="0.6" stop-color="white"/>
<stop offset="0.9"/>
</linearGradient>
<linearGradient id="paint14_linear_39_141" x1="511.119" y1="431.161" x2="511.791" y2="469.365" gradientUnits="userSpaceOnUse">
<stop/>
<stop offset="0.6" stop-color="white"/>
<stop offset="0.9"/>
</linearGradient>
<linearGradient id="paint15_linear_39_141" x1="506.582" y1="469.624" x2="539.069" y2="458.008" gradientUnits="userSpaceOnUse">
<stop/>
<stop offset="0.6" stop-color="white"/>
<stop offset="0.9"/>
</linearGradient>
<linearGradient id="paint16_linear_39_141" x1="488.355" y1="431.367" x2="488.355" y2="448.181" gradientUnits="userSpaceOnUse">
<stop stop-color="white"/>
<stop offset="1"/>
</linearGradient>
<linearGradient id="paint17_linear_39_141" x1="584.433" y1="419.041" x2="601.678" y2="461.534" gradientUnits="userSpaceOnUse">
<stop stop-color="white"/>
<stop offset="1" stop-color="#D4D6D7"/>
</linearGradient>
<linearGradient id="paint18_linear_39_141" x1="606.891" y1="454.866" x2="583.35" y2="424.787" gradientUnits="userSpaceOnUse">
<stop stop-color="white"/>
<stop offset="1" stop-color="#B8BABC"/>
</linearGradient>
<radialGradient id="paint19_radial_39_141" cx="0" cy="0" r="1" gradientUnits="userSpaceOnUse" gradientTransform="translate(588.144 430.159) scale(15.5736 15.18)">
<stop stop-color="white"/>
<stop offset="1" stop-color="#B1BFC7"/>
</radialGradient>
<linearGradient id="paint20_linear_39_141" x1="589.726" y1="432.936" x2="600.281" y2="451.622" gradientUnits="userSpaceOnUse">
<stop stop-color="white"/>
<stop offset="1" stop-color="#B7C6CE"/>
</linearGradient>
<clipPath id="clip0_39_141">
<rect width="44.4319" height="43.3089" fill="white" transform="translate(668.07 413.102)"/>
</clipPath>
<clipPath id="clip1_39_141">
<rect width="42.9378" height="45.54" fill="white" transform="translate(471.372 412.113)"/>
</clipPath>
<clipPath id="clip2_39_141">
<rect width="48.6676" height="47.4375" fill="white" transform="translate(567.693 413.102)"/>
</clipPath>
</defs>
</svg>
