<svg width="100" height="100" viewBox="0 0 130 212" fill="none" xmlns="http://www.w3.org/2000/svg">
<rect x="1" y="42.3846" width="127.818" height="131.269" rx="1" fill="black" stroke="black" stroke-width="2"/>
<rect x="18.4955" y="17.1038" width="92.8273" height="8.17692" fill="white" stroke="black" stroke-width="2"/>
<rect x="18.4955" y="186.719" width="92.8273" height="8.17692" fill="white" stroke="black" stroke-width="2"/>
<rect x="18.4955" y="202.873" width="92.8273" height="8.17692" fill="white" stroke="black" stroke-width="2"/>
<rect x="18.4955" y="0.95" width="92.8273" height="8.17692" fill="white" stroke="black" stroke-width="2"/>
<path d="M48.982 90.6154V69.8154H45.142V90.6154H48.982ZM59.142 67.8954V64.0554H35.422V67.8954H59.142ZM62.9611 90.6154V64.0154H66.8011V90.6154H62.9611ZM66.6811 64.1354H63.0811V90.4954H66.6811V64.1354ZM62.9611 64.0154V90.6154H66.8011V64.0154H62.9611ZM74.4573 75.8154V64.0554H70.6173V79.6554L74.2973 75.9754L74.4573 75.8154ZM81.0573 77.3354L94.3373 64.0554H88.9373L77.6173 75.3754L74.4573 78.5354L70.6173 82.3354V90.6154H74.4573V83.9754L78.3373 80.0554L88.9373 90.6154H94.3373L81.0573 77.3354Z" fill="white"/>
<path d="M39.8608 155.231V134.431H36.0208V155.231H39.8608ZM50.0208 132.511V128.671H26.3008V132.511H50.0208ZM47.2589 155.231H52.3389L60.7789 140.031L58.2589 135.431L47.2589 155.231ZM64.5789 133.151L62.0189 128.591L59.4989 133.151L62.0189 137.711L71.7389 155.231H76.7789L64.5789 133.151ZM83.5783 140.431V128.671H79.7383V144.271L83.4183 140.591L83.5783 140.431ZM90.1783 141.951L103.458 128.671H98.0583L86.7383 139.991L83.5783 143.151L79.7383 146.951V155.231H83.5783V148.591L87.4583 144.671L98.0583 155.231H103.458L90.1783 141.951Z" fill="white"/>
<rect x="46.3636" y="106" width="9.54545" height="9.54545" fill="white"/>
<rect x="74.1819" y="106" width="9.54545" height="9.54545" fill="white"/>
</svg>
